<svg width="70" height="52" viewBox="0 0 70 52" fill="none" xmlns="http://www.w3.org/2000/svg">
<path d="M67.8125 36.0938C67.6688 36.0938 67.5266 36.0656 67.3938 36.0107C67.2611 35.9557 67.1405 35.8752 67.0389 35.7736C66.9373 35.672 66.8568 35.5514 66.8018 35.4187C66.7469 35.2859 66.7187 35.1437 66.7188 35V29.5312C66.7188 29.2412 66.834 28.963 67.0391 28.7579C67.2442 28.5527 67.5224 28.4375 67.8125 28.4375C68.1026 28.4375 68.3808 28.5527 68.5859 28.7579C68.791 28.963 68.9063 29.2412 68.9063 29.5312V35C68.9063 35.1437 68.8781 35.2859 68.8232 35.4187C68.7682 35.5514 68.6877 35.672 68.5861 35.7736C68.4845 35.8752 68.3639 35.9557 68.2312 36.0107C68.0984 36.0656 67.9562 36.0938 67.8125 36.0938Z" fill="#0073AE"/>
<path d="M67.8129 30.625C67.6096 30.6252 67.4102 30.5688 67.2372 30.462C67.0642 30.3552 66.9244 30.2023 66.8334 30.0205L65.7397 27.833C65.6751 27.7044 65.6364 27.5644 65.6259 27.4209C65.6155 27.2774 65.6334 27.1333 65.6788 26.9968C65.7241 26.8602 65.7959 26.734 65.8901 26.6252C65.9843 26.5165 66.099 26.4274 66.2277 26.363C66.3564 26.2987 66.4965 26.2604 66.64 26.2503C66.7835 26.2402 66.9276 26.2584 67.0641 26.3041C67.2005 26.3498 67.3266 26.4219 67.4351 26.5163C67.5436 26.6108 67.6324 26.7257 67.6965 26.8546L68.7902 29.0421C68.8736 29.2087 68.913 29.394 68.9047 29.5802C68.8964 29.7663 68.8406 29.9473 68.7427 30.1059C68.6448 30.2645 68.508 30.3954 68.3453 30.4863C68.1825 30.5771 67.9993 30.6249 67.8129 30.625Z" fill="#0073AE"/>
<path d="M66.7179 28.4375C66.5315 28.4374 66.3483 28.3896 66.1855 28.2988C66.0228 28.2079 65.886 28.077 65.7881 27.9184C65.6902 27.7598 65.6344 27.5788 65.6261 27.3927C65.6178 27.2065 65.6572 27.0212 65.7406 26.8546L66.8343 24.6671C66.8983 24.5382 66.9872 24.4233 67.0957 24.3288C67.2042 24.2344 67.3303 24.1623 67.4667 24.1166C67.6032 24.0709 67.7473 24.0527 67.8908 24.0628C68.0343 24.0729 68.1744 24.1112 68.3031 24.1755C68.4317 24.2399 68.5465 24.329 68.6407 24.4377C68.7349 24.5465 68.8067 24.6727 68.852 24.8093C68.8974 24.9458 68.9153 25.0899 68.9049 25.2334C68.8944 25.3769 68.8557 25.5169 68.7911 25.6455L67.6973 27.833C67.6064 28.0148 67.4666 28.1677 67.2936 28.2745C67.1205 28.3813 66.9212 28.4377 66.7179 28.4375Z" fill="#0073AE"/>
<path d="M67.8126 26.2499C67.6465 26.2497 67.4826 26.2117 67.3333 26.1388C67.184 26.0659 67.0533 25.96 66.951 25.8291C66.8487 25.6982 66.7775 25.5457 66.7429 25.3832C66.7082 25.2207 66.7109 25.0525 66.7509 24.8913L67.8447 20.5163C67.9156 20.2357 68.0949 19.9947 68.3432 19.8461C68.5915 19.6974 68.8887 19.6534 69.1695 19.7235C69.4502 19.7936 69.6918 19.9722 69.8411 20.2201C69.9904 20.4681 70.0353 20.7651 69.966 21.046L68.8722 25.421C68.8134 25.6576 68.6772 25.8678 68.4852 26.018C68.2932 26.1682 68.0564 26.2498 67.8126 26.2499Z" fill="#0073AE"/>
<path d="M68.9067 21.875C68.7033 21.8752 68.504 21.8188 68.331 21.712C68.158 21.6052 68.0181 21.4523 67.9272 21.2705L66.8334 19.083C66.7688 18.9544 66.7301 18.8144 66.7197 18.6709C66.7092 18.5274 66.7272 18.3833 66.7725 18.2468C66.8179 18.1102 66.8897 17.984 66.9839 17.8752C67.0781 17.7665 67.1928 17.6774 67.3215 17.613C67.4502 17.5487 67.5903 17.5104 67.7338 17.5003C67.8773 17.4902 68.0214 17.5084 68.1578 17.5541C68.2943 17.5998 68.4203 17.6719 68.5289 17.7663C68.6374 17.8608 68.7262 17.9757 68.7902 18.1046L69.884 20.2921C69.9674 20.4587 70.0068 20.644 69.9985 20.8302C69.9901 21.0163 69.9344 21.1973 69.8365 21.3559C69.7386 21.5145 69.6017 21.6454 69.439 21.7363C69.2763 21.8271 69.093 21.8749 68.9067 21.875Z" fill="#0073AE"/>
<path d="M67.8123 19.6875C67.596 19.6875 67.3846 19.6233 67.2047 19.5031C67.0249 19.383 66.8848 19.2122 66.802 19.0123C66.7192 18.8125 66.6976 18.5926 66.7398 18.3805C66.7819 18.1683 66.8861 17.9735 67.039 17.8205L68.1327 16.7268C68.2339 16.6237 68.3546 16.5417 68.4877 16.4855C68.6207 16.4293 68.7636 16.4001 68.9081 16.3994C69.0525 16.3988 69.1957 16.4267 69.3292 16.4817C69.4628 16.5367 69.5842 16.6176 69.6863 16.7197C69.7885 16.8219 69.8694 16.9432 69.9243 17.0768C69.9793 17.2104 70.0073 17.3535 70.0066 17.498C70.006 17.6424 69.9767 17.7853 69.9205 17.9184C69.8644 18.0515 69.7824 18.1721 69.6793 18.2733L68.5855 19.3671C68.4841 19.4688 68.3636 19.5495 68.2309 19.6045C68.0982 19.6595 67.9559 19.6877 67.8123 19.6875Z" fill="#0073AE"/>
<path d="M68.9067 18.5938C68.7033 18.594 68.504 18.5375 68.331 18.4307C68.158 18.3239 68.0181 18.1711 67.9272 17.9892L66.8334 15.8017C66.7688 15.6732 66.7301 15.5332 66.7197 15.3897C66.7092 15.2462 66.7272 15.1021 66.7725 14.9655C66.8179 14.829 66.8897 14.7027 66.9839 14.594C67.0781 14.4852 67.1928 14.3961 67.3215 14.3318C67.4502 14.2675 67.5903 14.2291 67.7338 14.219C67.8773 14.2089 68.0214 14.2272 68.1578 14.2729C68.2943 14.3185 68.4203 14.3906 68.5289 14.4851C68.6374 14.5795 68.7262 14.6945 68.7902 14.8233L69.884 17.0108C69.9674 17.1775 70.0068 17.3627 69.9985 17.5489C69.9901 17.7351 69.9344 17.9161 69.8365 18.0747C69.7386 18.2332 69.6017 18.3642 69.439 18.455C69.2763 18.5459 69.093 18.5936 68.9067 18.5938Z" fill="#0073AE"/>
<path d="M63.4358 17.5C63.1691 17.4996 62.9116 17.4018 62.712 17.2248C62.5124 17.0479 62.3843 16.8041 62.3519 16.5394C62.3194 16.2746 62.3849 16.0071 62.536 15.7872C62.687 15.5674 62.9132 15.4103 63.172 15.3456L67.547 14.2518C67.6864 14.2166 67.8314 14.2092 67.9737 14.2301C68.116 14.251 68.2528 14.2998 68.3762 14.3736C68.4996 14.4475 68.6073 14.545 68.693 14.6605C68.7786 14.776 68.8407 14.9073 68.8755 15.0468C68.9104 15.1864 68.9173 15.3314 68.896 15.4737C68.8747 15.6159 68.8256 15.7525 68.7514 15.8757C68.6772 15.9989 68.5794 16.1063 68.4636 16.1916C68.3479 16.277 68.2164 16.3387 68.0768 16.3731L63.7018 17.4669C63.6148 17.4888 63.5255 17.5 63.4358 17.5Z" fill="#0073AE"/>
<path d="M60.156 20.7813C59.9397 20.7813 59.7283 20.7171 59.5485 20.5969C59.3687 20.4767 59.2285 20.3059 59.1457 20.1061C59.063 19.9062 59.0413 19.6864 59.0835 19.4742C59.1257 19.2621 59.2298 19.0672 59.3827 18.9143L62.664 15.633C62.7652 15.53 62.8858 15.448 63.0189 15.3918C63.152 15.3356 63.2949 15.3063 63.4393 15.3057C63.5838 15.305 63.7269 15.333 63.8605 15.388C63.9941 15.4429 64.1154 15.5238 64.2176 15.626C64.3197 15.7281 64.4006 15.8495 64.4556 15.9831C64.5106 16.1166 64.5385 16.2598 64.5379 16.4042C64.5372 16.5487 64.508 16.6916 64.4518 16.8247C64.3956 16.9577 64.3136 17.0784 64.2105 17.1796L60.9293 20.4608C60.8279 20.5626 60.7073 20.6432 60.5746 20.6982C60.4419 20.7532 60.2997 20.7815 60.156 20.7813Z" fill="#0073AE"/>
<path d="M60.1559 20.7813C60.0364 20.7815 59.9177 20.762 59.8045 20.7236L56.5766 19.6299C56.3018 19.5367 56.0753 19.3381 55.9469 19.0779C55.8185 18.8177 55.7988 18.5172 55.892 18.2424C55.9852 17.9676 56.1837 17.7411 56.4439 17.6127C56.7041 17.4843 57.0047 17.4645 57.2794 17.5577L60.5073 18.6515C60.7528 18.7347 60.9608 18.9025 61.0942 19.1248C61.2275 19.3472 61.2776 19.6097 61.2354 19.8655C61.1932 20.1213 61.0614 20.3538 60.8637 20.5216C60.666 20.6893 60.4152 20.7814 60.1559 20.7813Z" fill="#0073AE"/>
<path d="M48.1264 24.0625C47.8796 24.0628 47.64 23.9797 47.4465 23.8266C47.253 23.6736 47.1169 23.4596 47.0604 23.2194C47.0038 22.9792 47.0301 22.727 47.135 22.5037C47.24 22.2804 47.4173 22.0991 47.6382 21.9893L56.4416 17.6143C56.7012 17.4866 57.0008 17.4669 57.2749 17.5596C57.5489 17.6523 57.7751 17.8497 57.9039 18.1088C58.0327 18.3678 58.0537 18.6673 57.9622 18.9418C57.8707 19.2162 57.6742 19.4432 57.4158 19.5732L48.6124 23.9482C48.4614 24.0234 48.295 24.0626 48.1264 24.0625Z" fill="#0073AE"/>
<path d="M26.2509 24.0626C26.1904 24.0629 26.13 24.0579 26.0704 24.0477L19.5079 22.9539C19.2218 22.9063 18.9663 22.747 18.7977 22.5111C18.629 22.2751 18.561 21.9818 18.6086 21.6957C18.6562 21.4096 18.8155 21.1541 19.0514 20.9854C19.2874 20.8167 19.5807 20.7487 19.8668 20.7963L26.4293 21.8901C26.7 21.9351 26.9438 22.0802 27.1124 22.2967C27.2811 22.5131 27.3622 22.785 27.3398 23.0584C27.3173 23.3319 27.1929 23.5869 26.9912 23.7729C26.7895 23.9589 26.5253 24.0623 26.2509 24.0626Z" fill="#0073AE"/>
<path d="M19.6869 22.9688C19.5175 22.9687 19.3504 22.9292 19.1988 22.8535L17.0113 21.7597C16.8825 21.6957 16.7675 21.6069 16.6731 21.4983C16.5786 21.3898 16.5065 21.2637 16.4608 21.1273C16.4152 20.9909 16.3969 20.8468 16.407 20.7033C16.4171 20.5597 16.4554 20.4196 16.5198 20.291C16.5841 20.1623 16.6732 20.0476 16.782 19.9534C16.8907 19.8592 17.017 19.7873 17.1535 19.742C17.29 19.6967 17.4342 19.6787 17.5777 19.6892C17.7212 19.6996 17.8612 19.7383 17.9897 19.8029L20.1772 20.8967C20.3977 21.0069 20.5746 21.1883 20.679 21.4117C20.7835 21.635 20.8094 21.887 20.7527 22.1269C20.6959 22.3668 20.5597 22.5805 20.3663 22.7333C20.1729 22.8861 19.9335 22.9691 19.6869 22.9688Z" fill="#0073AE"/>
<path d="M17.4993 21.8749C17.3261 21.8747 17.1554 21.8333 17.0012 21.7543C16.8471 21.6752 16.7139 21.5607 16.6126 21.4201C16.5114 21.2796 16.445 21.117 16.4188 20.9457C16.3926 20.7745 16.4075 20.5995 16.4622 20.4351L17.5559 17.1538C17.6011 17.0173 17.6728 16.891 17.7669 16.7823C17.8609 16.6735 17.9755 16.5843 18.1041 16.5199C18.2326 16.4555 18.3726 16.4171 18.5161 16.4068C18.6595 16.3966 18.8036 16.4148 18.94 16.4603C19.0764 16.5058 19.2025 16.5778 19.311 16.6721C19.4196 16.7664 19.5084 16.8812 19.5726 17.0099C19.6367 17.1386 19.6748 17.2787 19.6847 17.4222C19.6946 17.5657 19.6761 17.7097 19.6302 17.846L18.5365 21.1272C18.4639 21.3449 18.3247 21.5343 18.1386 21.6685C17.9524 21.8027 17.7288 21.8749 17.4993 21.8749Z" fill="#0073AE"/>
<path d="M18.5941 18.5937C18.3148 18.5942 18.046 18.4876 17.8432 18.2957L15.6557 16.2321C15.5504 16.1337 15.4655 16.0154 15.4061 15.8842C15.3466 15.7529 15.3137 15.6111 15.3091 15.4671C15.3046 15.323 15.3286 15.1795 15.3797 15.0448C15.4308 14.91 15.508 14.7867 15.6069 14.6818C15.7058 14.577 15.8245 14.4928 15.9561 14.4339C16.0876 14.3751 16.2295 14.3428 16.3736 14.339C16.5177 14.3352 16.6611 14.3598 16.7956 14.4116C16.9301 14.4634 17.053 14.5412 17.1574 14.6406L19.3449 16.7042C19.5043 16.8545 19.6149 17.0492 19.6623 17.2631C19.7097 17.477 19.6919 17.7002 19.6109 17.9038C19.53 18.1075 19.3898 18.2821 19.2085 18.4051C19.0272 18.5281 18.8131 18.5938 18.5941 18.5937Z" fill="#0073AE"/>
<path d="M10.9374 21.875C10.7201 21.875 10.5077 21.8102 10.3273 21.689C10.1469 21.5677 10.0068 21.3955 9.92471 21.1942C9.84265 20.993 9.82241 20.7718 9.86657 20.559C9.91073 20.3462 10.0173 20.1514 10.1727 19.9994L15.6414 14.6546C15.8494 14.4549 16.1278 14.3455 16.4161 14.35C16.7043 14.3545 16.9791 14.4727 17.1807 14.6788C17.3823 14.8849 17.4944 15.1623 17.4926 15.4506C17.4907 15.7389 17.3751 16.0148 17.1709 16.2183L11.7022 21.5631C11.4981 21.7634 11.2234 21.8754 10.9374 21.875Z" fill="#0073AE"/>
<path d="M6.56386 24.0624C6.31733 24.0628 6.07793 23.9798 5.88449 23.8269C5.69104 23.6741 5.5549 23.4604 5.49814 23.2205C5.44138 22.9806 5.46733 22.7286 5.57178 22.5053C5.67623 22.282 5.85306 22.1005 6.07359 21.9903L10.4486 19.8028C10.708 19.6739 11.0079 19.6531 11.2826 19.745C11.5573 19.8369 11.7843 20.0341 11.9139 20.2932C12.0434 20.5522 12.0649 20.8521 11.9736 21.127C11.8824 21.4019 11.6858 21.6294 11.427 21.7596L7.05199 23.9471C6.9004 24.0228 6.73331 24.0623 6.56386 24.0624Z" fill="#0073AE"/>
<path d="M5.46888 28.4375C5.30275 28.4373 5.13883 28.3993 4.98955 28.3264C4.84027 28.2535 4.70953 28.1476 4.60723 28.0167C4.50493 27.8858 4.43376 27.7333 4.3991 27.5709C4.36444 27.4084 4.3672 27.2401 4.40717 27.0789L5.50092 22.7039C5.53537 22.5642 5.59704 22.4328 5.68239 22.317C5.76775 22.2013 5.8751 22.1035 5.99831 22.0293C6.12151 21.9551 6.25815 21.9059 6.40039 21.8846C6.54262 21.8633 6.68767 21.8703 6.8272 21.9051C6.96674 21.94 7.09803 22.002 7.21355 22.0877C7.32907 22.1734 7.42655 22.281 7.5004 22.4044C7.57425 22.5278 7.62303 22.6646 7.64393 22.8069C7.66483 22.9492 7.65745 23.0942 7.6222 23.2337L6.52845 27.6087C6.46967 27.8453 6.33343 28.0554 6.14142 28.2056C5.94941 28.3558 5.71266 28.4374 5.46888 28.4375Z" fill="#0073AE"/>
<path d="M6.56165 32.8125C6.31787 32.8124 6.08113 32.7308 5.88912 32.5806C5.6971 32.4304 5.56086 32.2203 5.50208 31.9837L4.40833 27.6087C4.37309 27.4692 4.3657 27.3242 4.38661 27.1819C4.40751 27.0396 4.45628 26.9028 4.53013 26.7794C4.60398 26.656 4.70146 26.5484 4.81698 26.4627C4.9325 26.377 5.06379 26.315 5.20333 26.2801C5.34287 26.2453 5.48791 26.2383 5.63015 26.2596C5.77239 26.2809 5.90902 26.3301 6.03223 26.4043C6.15543 26.4785 6.26279 26.5763 6.34814 26.692C6.43349 26.8078 6.49516 26.9392 6.52961 27.0789L7.62336 31.4539C7.66334 31.6151 7.66609 31.7834 7.63143 31.9459C7.59677 32.1083 7.5256 32.2608 7.4233 32.3917C7.32101 32.5226 7.19027 32.6285 7.04098 32.7014C6.8917 32.7743 6.72779 32.8123 6.56165 32.8125Z" fill="#0073AE"/>
<path d="M3.28079 33.9062C3.02119 33.9061 2.77008 33.8137 2.57238 33.6455C2.37467 33.4772 2.24326 33.2442 2.20165 32.9879C2.16003 32.7317 2.21092 32.469 2.34523 32.2468C2.47953 32.0247 2.68848 31.8575 2.93471 31.7753L6.21596 30.6816C6.35226 30.6357 6.49627 30.6172 6.63973 30.6271C6.78319 30.637 6.92329 30.6751 7.05201 30.7392C7.18073 30.8033 7.29553 30.8922 7.38985 31.0007C7.48417 31.1093 7.55615 31.2354 7.60167 31.3718C7.64718 31.5082 7.66534 31.6522 7.65511 31.7957C7.64487 31.9391 7.60644 32.0791 7.54202 32.2077C7.47759 32.3363 7.38844 32.4509 7.27967 32.5449C7.17089 32.639 7.04463 32.7106 6.90811 32.7558L3.62686 33.8496C3.51531 33.887 3.39844 33.9061 3.28079 33.9062Z" fill="#0073AE"/>
<path d="M3.27994 33.9062C3.1105 33.906 2.9434 33.8665 2.79181 33.7908L0.60431 32.6971C0.345535 32.5669 0.14895 32.3394 0.0576769 32.0645C-0.0335957 31.7896 -0.012103 31.4897 0.11744 31.2307C0.246984 30.9716 0.474 30.7744 0.748692 30.6825C1.02338 30.5906 1.32332 30.6114 1.58271 30.7403L3.77021 31.8341C3.99074 31.9443 4.16757 32.1257 4.27202 32.349C4.37648 32.5723 4.40243 32.8244 4.34566 33.0643C4.2889 33.3042 4.15276 33.5179 3.95931 33.6707C3.76587 33.8235 3.52647 33.9065 3.27994 33.9062Z" fill="#0073AE"/>
<path d="M5.46983 41.6683C5.28826 41.6685 5.10948 41.6236 4.94965 41.5374C4.78983 41.4513 4.654 41.3266 4.55445 41.1748L0.179446 34.5065C0.100616 34.3865 0.0462068 34.2521 0.0193255 34.111C-0.00755582 33.9699 -0.00638297 33.8248 0.0227771 33.6842C0.0519371 33.5436 0.108513 33.41 0.189275 33.2913C0.270038 33.1725 0.373404 33.0708 0.493473 32.9919C0.613542 32.9131 0.747961 32.8587 0.889058 32.8318C1.03015 32.8049 1.17516 32.8061 1.31581 32.8353C1.45645 32.8644 1.58997 32.921 1.70875 33.0018C1.82753 33.0825 1.92923 33.1859 2.00806 33.306L6.38307 39.9742C6.49131 40.1391 6.55296 40.3302 6.56149 40.5272C6.57002 40.7242 6.52511 40.9199 6.43151 41.0935C6.33792 41.2671 6.19913 41.4122 6.02982 41.5134C5.86052 41.6146 5.66701 41.6681 5.46978 41.6683H5.46983Z" fill="#0073AE"/>
<path d="M1.09375 35C0.950094 35.0001 0.80783 34.9718 0.675093 34.9169C0.542356 34.862 0.42175 34.7814 0.320169 34.6798C0.218589 34.5783 0.138027 34.4576 0.08309 34.3249C0.028153 34.1922 -8.17763e-05 34.0499 1.77899e-07 33.9062V31.7188C1.77899e-07 31.4287 0.115234 31.1505 0.320352 30.9454C0.52547 30.7402 0.80367 30.625 1.09375 30.625C1.38383 30.625 1.66203 30.7402 1.86715 30.9454C2.07227 31.1505 2.1875 31.4287 2.1875 31.7188V33.9062C2.18758 34.0499 2.15935 34.1922 2.10441 34.3249C2.04947 34.4576 1.96891 34.5783 1.86733 34.6798C1.76575 34.7814 1.64514 34.862 1.51241 34.9169C1.37967 34.9718 1.23741 35.0001 1.09375 35Z" fill="#0073AE"/>
<path d="M5.64467 41.5626C5.43225 41.5626 5.22442 41.5008 5.04656 41.3847C4.86869 41.2685 4.7285 41.1031 4.64309 40.9086C4.55768 40.7141 4.53075 40.499 4.5656 40.2894C4.60044 40.0799 4.69555 39.885 4.83931 39.7286L6.85057 37.5411C6.94778 37.4354 7.06486 37.3498 7.19514 37.2893C7.32542 37.2288 7.46634 37.1945 7.60986 37.1885C7.75338 37.1824 7.89669 37.2047 8.0316 37.254C8.16651 37.3034 8.29038 37.3788 8.39614 37.476C8.5019 37.5732 8.58748 37.6903 8.64799 37.8206C8.70851 37.9508 8.74276 38.0918 8.74882 38.2353C8.75487 38.3788 8.73259 38.5221 8.68326 38.657C8.63392 38.7919 8.5585 38.9158 8.46129 39.0216L6.45003 41.2091C6.34771 41.3207 6.22325 41.4098 6.08459 41.4706C5.94592 41.5315 5.7961 41.5628 5.64467 41.5626Z" fill="#0073AE"/>
<path d="M7.65761 39.3749C7.41108 39.3753 7.17168 39.2923 6.97824 39.1394C6.78479 38.9866 6.64865 38.7729 6.59189 38.533C6.53513 38.2931 6.56108 38.0411 6.66553 37.8178C6.76998 37.5945 6.94681 37.413 7.16734 37.3028L9.35484 36.2091C9.61423 36.0801 9.91417 36.0593 10.1889 36.1513C10.4636 36.2432 10.6906 36.4403 10.8201 36.6994C10.9497 36.9585 10.9711 37.2584 10.8799 37.5333C10.7886 37.8082 10.592 38.0357 10.3332 38.1658L8.14574 39.2596C7.99415 39.3353 7.82706 39.3748 7.65761 39.3749Z" fill="#0073AE"/>
<path d="M9.84575 38.2813C9.64243 38.2815 9.44308 38.225 9.27007 38.1182C9.09706 38.0114 8.95723 37.8585 8.86628 37.6767L7.77253 35.4892C7.6436 35.2298 7.62282 34.9299 7.71475 34.6552C7.80667 34.3805 8.0038 34.1535 8.26288 34.0239C8.52197 33.8944 8.82185 33.8729 9.09676 33.9642C9.37167 34.0554 9.59916 34.252 9.72932 34.5108L10.8231 36.6983C10.9064 36.865 10.9459 37.0502 10.9375 37.2364C10.9292 37.4226 10.8735 37.6036 10.7756 37.7621C10.6776 37.9207 10.5408 38.0517 10.3781 38.1425C10.2154 38.2334 10.0321 38.2811 9.84575 38.2813Z" fill="#0073AE"/>
<path d="M13.125 36.0938H8.75C8.45992 36.0938 8.18172 35.9785 7.9766 35.7734C7.77148 35.5683 7.65625 35.2901 7.65625 35C7.65625 34.7099 7.77148 34.4317 7.9766 34.2266C8.18172 34.0215 8.45992 33.9062 8.75 33.9062H13.125C13.4151 33.9062 13.6933 34.0215 13.8984 34.2266C14.1035 34.4317 14.2188 34.7099 14.2188 35C14.2188 35.2901 14.1035 35.5683 13.8984 35.7734C13.6933 35.9785 13.4151 36.0938 13.125 36.0938Z" fill="#0073AE"/>
<path d="M16.4069 39.375C16.2633 39.3751 16.121 39.3469 15.9883 39.2919C15.8556 39.2369 15.7351 39.1562 15.6337 39.0545L12.3524 35.7732C12.1504 35.5675 12.0378 35.2903 12.0391 35.002C12.0404 34.7137 12.1555 34.4375 12.3594 34.2336C12.5633 34.0298 12.8394 33.9146 13.1277 33.9133C13.4161 33.912 13.6932 34.0246 13.899 34.2267L17.1802 37.5079C17.3331 37.6609 17.4373 37.8558 17.4795 38.0679C17.5216 38.28 17.5 38.4999 17.4172 38.6997C17.3344 38.8996 17.1943 39.0704 17.0145 39.1906C16.8346 39.3107 16.6232 39.3749 16.4069 39.375Z" fill="#0073AE"/>
<path d="M16.406 39.375C16.1897 39.3749 15.9783 39.3107 15.7985 39.1906C15.6187 39.0704 15.4785 38.8996 15.3957 38.6997C15.313 38.4999 15.2913 38.28 15.3335 38.0679C15.3757 37.8558 15.4798 37.6609 15.6327 37.5079L17.8202 35.3204C18.026 35.1184 18.3031 35.0058 18.5915 35.0071C18.8798 35.0084 19.1559 35.1235 19.3598 35.3274C19.5637 35.5313 19.6788 35.8074 19.6801 36.0958C19.6814 36.3841 19.5688 36.6613 19.3668 36.867L17.1793 39.0545C17.0779 39.1562 16.9573 39.2369 16.8246 39.2919C16.6919 39.3469 16.5497 39.3751 16.406 39.375Z" fill="#0073AE"/>
<path d="M22.9702 38.2812C22.8805 38.2812 22.7912 38.2701 22.7042 38.2481L18.3292 37.1543C18.0487 37.0834 17.8076 36.9041 17.659 36.6558C17.5104 36.4075 17.4664 36.1103 17.5365 35.8296C17.6066 35.5488 17.7852 35.3073 18.0331 35.1579C18.2811 35.0086 18.5781 34.9637 18.859 35.0331L23.234 36.1268C23.4928 36.1915 23.719 36.3486 23.8701 36.5685C24.0211 36.7883 24.0866 37.0558 24.0542 37.3206C24.0217 37.5854 23.8937 37.8292 23.694 38.0061C23.4944 38.183 23.237 38.2808 22.9702 38.2812Z" fill="#0073AE"/>
<path d="M24.0645 40.4688C23.8612 40.469 23.6618 40.4125 23.4888 40.3057C23.3158 40.1989 23.176 40.046 23.085 39.8642L21.9913 37.6767C21.8624 37.4173 21.8416 37.1174 21.9335 36.8427C22.0254 36.568 22.2225 36.341 22.4816 36.2114C22.7407 36.0819 23.0406 36.0604 23.3155 36.1517C23.5904 36.2429 23.8179 36.4395 23.9481 36.6983L25.0418 38.8858C25.1252 39.0525 25.1646 39.2377 25.1563 39.4239C25.148 39.6101 25.0922 39.7911 24.9943 39.9496C24.8964 40.1082 24.7596 40.2392 24.5969 40.33C24.4341 40.4209 24.2509 40.4686 24.0645 40.4688Z" fill="#0073AE"/>
<path d="M26.25 40.4688H24.0625C23.7724 40.4688 23.4942 40.3535 23.2891 40.1484C23.084 39.9433 22.9688 39.6651 22.9688 39.375C22.9688 39.0849 23.084 38.8067 23.2891 38.6016C23.4942 38.3965 23.7724 38.2812 24.0625 38.2812H26.25C26.5401 38.2812 26.8183 38.3965 27.0234 38.6016C27.2285 38.8067 27.3438 39.0849 27.3438 39.375C27.3438 39.6651 27.2285 39.9433 27.0234 40.1484C26.8183 40.3535 26.5401 40.4688 26.25 40.4688Z" fill="#0073AE"/>
<path d="M27.3442 43.7499C27.1147 43.7499 26.8911 43.6777 26.7049 43.5435C26.5188 43.4093 26.3796 43.2199 26.307 43.0022L25.2133 39.721C25.1675 39.5847 25.1489 39.4407 25.1588 39.2972C25.1687 39.1537 25.2068 39.0136 25.2709 38.8849C25.3351 38.7562 25.4239 38.6414 25.5325 38.5471C25.641 38.4528 25.7671 38.3808 25.9035 38.3353C26.0399 38.2898 26.184 38.2716 26.3274 38.2818C26.4709 38.2921 26.6109 38.3305 26.7394 38.3949C26.868 38.4593 26.9826 38.5485 27.0767 38.6573C27.1707 38.766 27.2424 38.8923 27.2876 39.0288L28.3813 42.3101C28.436 42.4745 28.4509 42.6495 28.4247 42.8207C28.3986 42.992 28.3321 43.1546 28.2309 43.2951C28.1296 43.4357 27.9964 43.5502 27.8423 43.6293C27.6881 43.7083 27.5174 43.7497 27.3442 43.7499Z" fill="#0073AE"/>
<path d="M30.6234 45.9376C30.4078 45.9374 30.1971 45.8734 30.0178 45.7538L26.7365 43.5663C26.4981 43.4042 26.3333 43.1544 26.2781 42.8714C26.2228 42.5884 26.2816 42.2951 26.4415 42.0551C26.6015 41.8152 26.8497 41.6482 27.1322 41.5903C27.4147 41.5325 27.7086 41.5886 27.9499 41.7463L31.2312 43.9338C31.4266 44.0641 31.5748 44.2538 31.654 44.4748C31.7332 44.6959 31.7392 44.9366 31.6711 45.1613C31.6029 45.386 31.4642 45.5828 31.2756 45.7226C31.0869 45.8624 30.8582 45.9378 30.6234 45.9376Z" fill="#0073AE"/>
<path d="M30.6245 45.9375C30.3649 45.9374 30.1138 45.845 29.9161 45.6768C29.7184 45.5085 29.587 45.2755 29.5454 45.0192C29.5038 44.763 29.5547 44.5003 29.689 44.2781C29.8233 44.056 30.0322 43.8888 30.2785 43.8066L33.5597 42.7129C33.8346 42.6219 34.1343 42.6436 34.3931 42.7733C34.652 42.903 34.8488 43.1301 34.9404 43.4048C35.0321 43.6794 35.0111 43.9792 34.882 44.2383C34.7529 44.4975 34.5263 44.6948 34.2519 44.7871L30.9706 45.8809C30.8591 45.9183 30.7422 45.9374 30.6245 45.9375Z" fill="#0073AE"/>
<path d="M36.0932 45.9376C35.9237 45.9374 35.7566 45.8979 35.6051 45.8222L33.4176 44.7285C33.2887 44.6644 33.1738 44.5756 33.0793 44.4671C32.9849 44.3586 32.9127 44.2325 32.8671 44.0961C32.8214 43.9596 32.8031 43.8155 32.8133 43.672C32.8234 43.5285 32.8617 43.3884 32.926 43.2597C32.9904 43.131 33.0795 43.0163 33.1882 42.9221C33.297 42.8279 33.4232 42.7561 33.5597 42.7108C33.6963 42.6654 33.8404 42.6475 33.9839 42.6579C34.1274 42.6684 34.2674 42.707 34.396 42.7717L36.5835 43.8654C36.804 43.9756 36.9808 44.1571 37.0853 44.3804C37.1897 44.6037 37.2157 44.8558 37.1589 45.0957C37.1021 45.3356 36.966 45.5492 36.7726 45.7021C36.5791 45.8549 36.3397 45.9379 36.0932 45.9376Z" fill="#0073AE"/>
<path d="M36.0935 45.9375C35.8772 45.9374 35.6658 45.8732 35.486 45.7531C35.3062 45.6329 35.166 45.4621 35.0832 45.2622C35.0005 45.0624 34.9788 44.8425 35.021 44.6304C35.0632 44.4183 35.1673 44.2234 35.3202 44.0704L36.414 42.9767C36.6197 42.7746 36.8969 42.662 37.1852 42.6633C37.4735 42.6646 37.7497 42.7798 37.9536 42.9836C38.1575 43.1875 38.2726 43.4637 38.2739 43.752C38.2752 44.0403 38.1626 44.3175 37.9605 44.5232L36.8668 45.617C36.7654 45.7187 36.6448 45.7994 36.5121 45.8544C36.3794 45.9094 36.2372 45.9376 36.0935 45.9375Z" fill="#0073AE"/>
<path d="M43.7501 47.0312C43.6325 47.0311 43.5156 47.012 43.4041 46.9746L36.8416 44.7871C36.705 44.7419 36.5788 44.6702 36.47 44.5762C36.3612 44.4821 36.2721 44.3675 36.2077 44.2389C36.1432 44.1104 36.1048 43.9704 36.0946 43.8269C36.0843 43.6835 36.1025 43.5395 36.148 43.403C36.1935 43.2666 36.2655 43.1405 36.3598 43.032C36.4541 42.9234 36.5689 42.8346 36.6977 42.7705C36.8264 42.7063 36.9665 42.6682 37.11 42.6584C37.2534 42.6485 37.3974 42.667 37.5337 42.7128L44.0962 44.9003C44.3424 44.9825 44.5514 45.1497 44.6857 45.3718C44.82 45.594 44.8709 45.8567 44.8293 46.1129C44.7877 46.3692 44.6563 46.6022 44.4586 46.7705C44.2608 46.9387 44.0097 47.0311 43.7501 47.0312Z" fill="#0073AE"/>
<path d="M43.7514 47.0312C43.5048 47.0315 43.2654 46.9485 43.072 46.7957C42.8785 46.6429 42.7424 46.4292 42.6856 46.1893C42.6289 45.9494 42.6548 45.6973 42.7593 45.474C42.8637 45.2507 43.0406 45.0693 43.2611 44.9591L45.4486 43.8653C45.708 43.7364 46.0079 43.7156 46.2826 43.8075C46.5573 43.8994 46.7843 44.0966 46.9139 44.3557C47.0434 44.6147 47.0649 44.9146 46.9736 45.1895C46.8824 45.4644 46.6858 45.6919 46.427 45.8221L44.2395 46.9158C44.0879 46.9915 43.9208 47.031 43.7514 47.0312Z" fill="#0073AE"/>
<path d="M48.125 45.9375H45.9375C45.6474 45.9375 45.3692 45.8223 45.1641 45.6171C44.959 45.412 44.8438 45.1338 44.8438 44.8438C44.8438 44.5537 44.959 44.2755 45.1641 44.0704C45.3692 43.8652 45.6474 43.75 45.9375 43.75H48.125C48.4151 43.75 48.6933 43.8652 48.8984 44.0704C49.1035 44.2755 49.2188 44.5537 49.2188 44.8438C49.2188 45.1338 49.1035 45.412 48.8984 45.6171C48.6933 45.8223 48.4151 45.9375 48.125 45.9375Z" fill="#0073AE"/>
<path d="M48.1243 45.9374C47.9511 45.9372 47.7804 45.8958 47.6262 45.8168C47.4721 45.7377 47.3389 45.6232 47.2376 45.4826C47.1364 45.3421 47.07 45.1795 47.0438 45.0082C47.0176 44.837 47.0325 44.662 47.0872 44.4976L48.1809 41.2163C48.2261 41.0798 48.2978 40.9535 48.3919 40.8448C48.4859 40.736 48.6005 40.6468 48.7291 40.5824C48.8576 40.518 48.9976 40.4796 49.1411 40.4693C49.2845 40.4591 49.4286 40.4773 49.565 40.5228C49.7014 40.5683 49.8275 40.6403 49.936 40.7346C50.0446 40.8289 50.1334 40.9437 50.1976 41.0724C50.2617 41.2011 50.2998 41.3412 50.3097 41.4847C50.3196 41.6282 50.301 41.7722 50.2552 41.9085L49.1615 45.1897C49.0889 45.4074 48.9497 45.5968 48.7636 45.731C48.5774 45.8652 48.3538 45.9374 48.1243 45.9374Z" fill="#0073AE"/>
<path d="M51.4062 42.6562H49.2188C48.9287 42.6562 48.6505 42.541 48.4454 42.3359C48.2402 42.1308 48.125 41.8526 48.125 41.5625C48.125 41.2724 48.2402 40.9942 48.4454 40.7891C48.6505 40.584 48.9287 40.4688 49.2188 40.4688H51.4062C51.6963 40.4688 51.9745 40.584 52.1796 40.7891C52.3848 40.9942 52.5 41.2724 52.5 41.5625C52.5 41.8526 52.3848 42.1308 52.1796 42.3359C51.9745 42.541 51.6963 42.6562 51.4062 42.6562Z" fill="#0073AE"/>
<path d="M53.5944 44.8437C53.4508 44.8439 53.3085 44.8156 53.1758 44.7606C53.0431 44.7056 52.9226 44.625 52.8212 44.5232L50.6337 42.3357C50.4316 42.13 50.319 41.8528 50.3203 41.5645C50.3216 41.2762 50.4367 41 50.6406 40.7961C50.8445 40.5923 51.1207 40.4771 51.409 40.4758C51.6973 40.4745 51.9745 40.5871 52.1802 40.7892L54.3677 42.9767C54.5206 43.1296 54.6248 43.3245 54.667 43.5366C54.7091 43.7488 54.6875 43.9687 54.6047 44.1685C54.5219 44.3683 54.3818 44.5391 54.202 44.6593C54.0221 44.7795 53.8107 44.8437 53.5944 44.8437Z" fill="#0073AE"/>
<path d="M55.7799 45.9374C55.6105 45.9373 55.4434 45.8978 55.2918 45.8221L53.1043 44.7283C52.8455 44.5982 52.649 44.3707 52.5577 44.0958C52.4664 43.8209 52.4879 43.521 52.6174 43.2619C52.747 43.0028 52.974 42.8057 53.2487 42.7138C53.5234 42.6218 53.8233 42.6426 54.0827 42.7716L56.2702 43.8653C56.4907 43.9755 56.6676 44.157 56.772 44.3803C56.8765 44.6036 56.9024 44.8556 56.8457 45.0955C56.7889 45.3354 56.6528 45.5491 56.4593 45.7019C56.2659 45.8548 56.0265 45.9378 55.7799 45.9374Z" fill="#0073AE"/>
<path d="M55.7826 45.9374C55.5361 45.9378 55.2967 45.8548 55.1032 45.7019C54.9098 45.5491 54.7736 45.3354 54.7169 45.0955C54.6601 44.8556 54.6861 44.6036 54.7905 44.3803C54.895 44.157 55.0718 43.9755 55.2923 43.8653L57.4798 42.7716C57.7392 42.6426 58.0392 42.6218 58.3139 42.7138C58.5886 42.8057 58.8156 43.0028 58.9451 43.2619C59.0747 43.521 59.0961 43.8209 59.0049 44.0958C58.9136 44.3707 58.717 44.5982 58.4582 44.7283L56.2707 45.8221C56.1191 45.8978 55.9521 45.9373 55.7826 45.9374Z" fill="#0073AE"/>
<path d="M57.9688 47.0312C57.8251 47.0313 57.6828 47.0031 57.5501 46.9482C57.4174 46.8932 57.2967 46.8127 57.1952 46.7111C57.0936 46.6095 57.013 46.4889 56.9581 46.3562C56.9032 46.2234 56.8749 46.0812 56.875 45.9375V43.75C56.875 43.4599 56.9902 43.1817 57.1954 42.9766C57.4005 42.7715 57.6787 42.6562 57.9688 42.6562C58.2588 42.6562 58.537 42.7715 58.7421 42.9766C58.9473 43.1817 59.0625 43.4599 59.0625 43.75V45.9375C59.0626 46.0812 59.0343 46.2234 58.9794 46.3562C58.9245 46.4889 58.8439 46.6095 58.7423 46.7111C58.6408 46.8127 58.5201 46.8932 58.3874 46.9482C58.2547 47.0031 58.1124 47.0313 57.9688 47.0312Z" fill="#0073AE"/>
<path d="M56.8736 49.2721C56.7077 49.2724 56.544 49.2344 56.3951 49.161C56.1345 49.0338 55.9351 48.8083 55.8407 48.5341C55.7464 48.2599 55.7648 47.9594 55.892 47.6988L56.9857 45.4578C57.0487 45.3288 57.1365 45.2134 57.2441 45.1183C57.3516 45.0232 57.4769 44.9502 57.6127 44.9035C57.7485 44.8568 57.8921 44.8372 58.0355 44.8461C58.1788 44.8549 58.319 44.8918 58.448 44.9548C58.5771 45.0178 58.6924 45.1056 58.7876 45.2131C58.8827 45.3207 58.9557 45.446 59.0024 45.5817C59.0491 45.7175 59.0686 45.8612 59.0598 46.0045C59.051 46.1478 59.0141 46.288 58.9511 46.4171L57.8573 48.658C57.7675 48.8423 57.6276 48.9977 57.4537 49.1063C57.2797 49.2149 57.0787 49.2724 56.8736 49.2721Z" fill="#0073AE"/>
<path d="M61.2486 51.4063C61.0827 51.4063 60.919 51.3683 60.7701 51.2952L56.3951 49.1611C56.2661 49.0981 56.1507 49.0103 56.0556 48.9028C55.9604 48.7952 55.8874 48.6699 55.8407 48.5341C55.794 48.3984 55.7745 48.2547 55.7833 48.1114C55.7921 47.968 55.8291 47.8279 55.892 47.6988C55.955 47.5698 56.0428 47.4544 56.1504 47.3593C56.258 47.2642 56.3832 47.1912 56.519 47.1444C56.6548 47.0977 56.7984 47.0782 56.9418 47.087C57.0851 47.0958 57.2253 47.1328 57.3543 47.1958L61.7293 49.3298C61.9516 49.4384 62.1305 49.619 62.2368 49.8423C62.3432 50.0656 62.3707 50.3183 62.315 50.5593C62.2592 50.8002 62.1234 51.0152 61.9297 51.169C61.736 51.3228 61.4959 51.4065 61.2486 51.4063Z" fill="#0073AE"/>
<path d="M61.25 51.3358C61.1063 51.3358 60.9641 51.3076 60.8313 51.2527C60.6986 51.1977 60.578 51.1172 60.4764 51.0156C60.3748 50.914 60.2943 50.7934 60.2393 50.6607C60.1844 50.5279 60.1562 50.3857 60.1563 50.242V41.5625C60.1563 41.2724 60.2715 40.9942 60.4766 40.7891C60.6817 40.584 60.9599 40.4688 61.25 40.4688C61.5401 40.4688 61.8183 40.584 62.0234 40.7891C62.2285 40.9942 62.3438 41.2724 62.3438 41.5625V50.242C62.3438 50.3857 62.3156 50.5279 62.2607 50.6607C62.2057 50.7934 62.1252 50.914 62.0236 51.0156C61.922 51.1172 61.8014 51.1977 61.6687 51.2527C61.5359 51.3076 61.3937 51.3358 61.25 51.3358Z" fill="#0073AE"/>
<path d="M61.2504 42.6563C61.0471 42.6565 60.8477 42.6 60.6747 42.4932C60.5017 42.3864 60.3619 42.2336 60.2709 42.0517L58.0834 37.6767C58.0188 37.5482 57.9801 37.4082 57.9697 37.2647C57.9592 37.1212 57.9772 36.9771 58.0225 36.8405C58.0679 36.704 58.1397 36.5777 58.2339 36.469C58.3281 36.3602 58.4428 36.2711 58.5715 36.2068C58.7002 36.1425 58.8403 36.1041 58.9838 36.094C59.1273 36.0839 59.2714 36.1022 59.4078 36.1479C59.5443 36.1935 59.6703 36.2656 59.7789 36.3601C59.8874 36.4545 59.9762 36.5695 60.0402 36.6983L62.2277 41.0733C62.3111 41.24 62.3505 41.4252 62.3422 41.6114C62.3339 41.7976 62.2781 41.9786 62.1802 42.1372C62.0823 42.2957 61.9455 42.4267 61.7828 42.5175C61.62 42.6084 61.4368 42.6561 61.2504 42.6563Z" fill="#0073AE"/>
<path d="M59.0625 38.2812H56.875C56.5849 38.2812 56.3067 38.166 56.1016 37.9609C55.8965 37.7558 55.7812 37.4776 55.7812 37.1875C55.7812 36.8974 55.8965 36.6192 56.1016 36.4141C56.3067 36.209 56.5849 36.0938 56.875 36.0938H59.0625C59.3526 36.0938 59.6308 36.209 59.8359 36.4141C60.041 36.6192 60.1562 36.8974 60.1562 37.1875C60.1562 37.4776 60.041 37.7558 59.8359 37.9609C59.6308 38.166 59.3526 38.2812 59.0625 38.2812Z" fill="#0073AE"/>
<path d="M56.8751 38.2812C56.709 38.281 56.5451 38.243 56.3958 38.1701C56.2465 38.0971 56.1158 37.9912 56.0135 37.8603C55.9112 37.7294 55.84 37.577 55.8054 37.4145C55.7707 37.252 55.7734 37.0838 55.8134 36.9225L56.9072 32.5475C56.9781 32.2669 57.1574 32.0259 57.4057 31.8773C57.654 31.7287 57.9512 31.6846 58.232 31.7547C58.5127 31.8249 58.7543 32.0035 58.9036 32.2514C59.0529 32.4993 59.0978 32.7963 59.0285 33.0773L57.9347 37.4523C57.8759 37.6889 57.7397 37.899 57.5477 38.0492C57.3557 38.1994 57.1189 38.2811 56.8751 38.2812Z" fill="#0073AE"/>
<path d="M57.9701 33.9062C57.7236 33.9065 57.4842 33.8235 57.2907 33.6707C57.0973 33.5179 56.9611 33.3042 56.9044 33.0643C56.8476 32.8244 56.8736 32.5723 56.978 32.349C57.0825 32.1257 57.2593 31.9443 57.4798 31.8341L61.8548 29.6466C62.1142 29.5176 62.4142 29.4968 62.6889 29.5888C62.9636 29.6807 63.1906 29.8778 63.3201 30.1369C63.4497 30.396 63.4711 30.6959 63.3799 30.9708C63.2886 31.2457 63.092 31.4732 62.8332 31.6033L58.4582 33.7908C58.3066 33.8665 58.1396 33.906 57.9701 33.9062Z" fill="#0073AE"/>
<path d="M62.3431 31.7186C62.1698 31.7184 61.9991 31.6771 61.845 31.598C61.6908 31.519 61.5576 31.4045 61.4564 31.2639C61.3551 31.1233 61.2887 30.9607 61.2625 30.7895C61.2364 30.6182 61.2513 30.4432 61.3059 30.2788L62.3997 26.9976C62.4449 26.8611 62.5165 26.7348 62.6106 26.626C62.7047 26.5172 62.8193 26.4281 62.9478 26.3637C63.0764 26.2992 63.2164 26.2608 63.3598 26.2506C63.5033 26.2403 63.6473 26.2585 63.7837 26.304C63.9201 26.3495 64.0462 26.4215 64.1548 26.5158C64.2633 26.6101 64.3522 26.725 64.4163 26.8537C64.4804 26.9824 64.5185 27.1225 64.5284 27.266C64.5383 27.4094 64.5198 27.5534 64.474 27.6897L63.3802 30.971C63.3077 31.1887 63.1685 31.378 62.9823 31.5122C62.7962 31.6464 62.5725 31.7186 62.3431 31.7186Z" fill="#0073AE"/>
<path d="M67.8132 36.0937C67.6695 36.0939 67.5273 36.0656 67.3946 36.0106C67.2619 35.9556 67.1413 35.875 67.0399 35.7732L63.7587 32.492C63.5566 32.2863 63.444 32.0091 63.4453 31.7208C63.4466 31.4324 63.5617 31.1563 63.7656 30.9524C63.9695 30.7485 64.2457 30.6334 64.534 30.6321C64.8223 30.6308 65.0995 30.7434 65.3052 30.9454L68.5865 34.2267C68.7394 34.3796 68.8435 34.5745 68.8857 34.7866C68.9279 34.9988 68.9062 35.2187 68.8235 35.4185C68.7407 35.6183 68.6005 35.7891 68.4207 35.9093C68.2409 36.0295 68.0295 36.0937 67.8132 36.0937Z" fill="#0073AE"/>
<path d="M64.5309 32.8124C64.2871 32.8123 64.0503 32.7307 63.8583 32.5805C63.6663 32.4303 63.5301 32.2201 63.4713 31.9835L62.3775 27.6085C62.3082 27.3276 62.3531 27.0306 62.5024 26.7826C62.6517 26.5347 62.8933 26.3561 63.174 26.286C63.4548 26.2159 63.7519 26.2599 64.0003 26.4086C64.2486 26.5572 64.4279 26.7982 64.4988 27.0788L65.5926 31.4538C65.6325 31.615 65.6353 31.7832 65.6006 31.9457C65.566 32.1082 65.4948 32.2607 65.3925 32.3916C65.2902 32.5225 65.1595 32.6284 65.0102 32.7013C64.8609 32.7742 64.697 32.8122 64.5309 32.8124Z" fill="#0073AE"/>
<path d="M37.1875 38.2812C36.9315 38.2815 36.6836 38.1919 36.4868 38.0281C35.9357 37.5678 22.9688 26.6196 22.9688 14.2188C22.9687 10.4477 24.4668 6.83111 27.1333 4.16458C29.7999 1.49804 33.4165 0 37.1875 0C40.9585 0 44.5751 1.49804 47.2417 4.16458C49.9082 6.83111 51.4062 10.4477 51.4062 14.2188C51.4062 26.6196 38.4393 37.5678 37.8882 38.0281C37.6914 38.1919 37.4435 38.2815 37.1875 38.2812ZM37.1875 2.1875C33.9977 2.1911 30.9396 3.45984 28.6841 5.71535C26.4286 7.97087 25.1599 11.029 25.1562 14.2188C25.1562 24.0337 34.5194 33.2889 37.1875 35.7263C39.8546 33.2867 49.2188 24.0198 49.2188 14.2188C49.2151 11.029 47.9464 7.97087 45.6909 5.71535C43.4354 3.45984 40.3773 2.1911 37.1875 2.1875Z" fill="#0073AE"/>
<path d="M37.1875 21.875C35.6732 21.875 34.193 21.426 32.9339 20.5847C31.6749 19.7434 30.6935 18.5477 30.1141 17.1487C29.5346 15.7497 29.3829 14.2103 29.6784 12.7251C29.9738 11.2399 30.703 9.87571 31.7737 8.80497C32.8445 7.73422 34.2087 7.00503 35.6938 6.70962C37.179 6.4142 38.7184 6.56582 40.1174 7.1453C41.5164 7.72478 42.7122 8.7061 43.5534 9.96517C44.3947 11.2242 44.8438 12.7045 44.8438 14.2188C44.8413 16.2486 44.0339 18.1945 42.5986 19.6298C41.1633 21.0651 39.2173 21.8725 37.1875 21.875ZM37.1875 8.75C36.1059 8.75 35.0486 9.07074 34.1492 9.67165C33.2499 10.2726 32.549 11.1267 32.135 12.126C31.7211 13.1252 31.6128 14.2248 31.8238 15.2857C32.0348 16.3465 32.5557 17.3209 33.3205 18.0857C34.0853 18.8506 35.0598 19.3714 36.1206 19.5824C37.1814 19.7934 38.281 19.6851 39.2803 19.2712C40.2796 18.8573 41.1337 18.1564 41.7346 17.257C42.3355 16.3577 42.6563 15.3004 42.6563 14.2188C42.6546 12.7689 42.0778 11.3789 41.0526 10.3536C40.0274 9.32842 38.6374 8.75171 37.1875 8.75Z" fill="#0073AE"/>
</svg>
