<svg width="29" height="24" viewBox="0 0 29 24" fill="none" xmlns="http://www.w3.org/2000/svg">
<path fill-rule="evenodd" clip-rule="evenodd" d="M7.5864 10.4661C7.11792 10.0668 7.11792 9.34315 7.5864 8.94389L7.69986 8.84719C8.07332 8.52891 8.62253 8.52861 8.99633 8.84649L13.7335 12.875L18.4707 8.84649C18.8445 8.52861 19.3937 8.52891 19.7672 8.84719L19.8807 8.94389C20.3491 9.34315 20.3491 10.0668 19.8807 10.4661L13.7335 15.705L7.5864 10.4661Z" fill="#0073AE"/>
<mask id="mask0_1_2616" style="mask-type:alpha" maskUnits="userSpaceOnUse" x="7" y="8" width="14" height="8">
<path fill-rule="evenodd" clip-rule="evenodd" d="M7.5864 10.4661C7.11792 10.0668 7.11792 9.34315 7.5864 8.94389L7.69986 8.84719C8.07332 8.52891 8.62253 8.52861 8.99633 8.84649L13.7335 12.875L18.4707 8.84649C18.8445 8.52861 19.3937 8.52891 19.7672 8.84719L19.8807 8.94389C20.3491 9.34315 20.3491 10.0668 19.8807 10.4661L13.7335 15.705L7.5864 10.4661Z" fill="white"/>
</mask>
<g mask="url(#mask0_1_2616)">
<rect width="28.1607" height="24" fill="#0073AE"/>
</g>
</svg>
