<svg width="70" height="70" viewBox="0 0 70 70" fill="none" xmlns="http://www.w3.org/2000/svg">
<g clip-path="url(#clip0_1_2942)">
<path d="M62.6183 0H17.3539C13.4256 0 10.2296 3.16612 10.2296 7.04517L9.93785 46.9028H1.10427C0.478239 46.9028 0 47.4563 0 48.0824V53.5677C0 58.7027 4.10931 62.9022 9.06883 63.1325V63.1984H47.1862V63.1242C47.4696 63.1358 47.6412 63.1984 47.8361 63.1984H47.8632C53.1526 63.1674 57.4163 58.856 57.3887 53.5666V18.7045H68.8957C69.5218 18.7045 70 18.1377 70 17.5122V7.44757C70.0072 3.35708 66.7088 0.0293364 62.6183 0V0ZM9.56478 60.9312H9.55703C5.52466 60.9312 2.26721 57.5984 2.26721 53.5666V49.17H38.2591V53.5478C38.2503 56.0995 39.2582 58.5494 41.0599 60.3561C41.2514 60.5487 41.4518 60.6478 41.6566 60.9312H9.56478ZM55.1215 53.5655C55.1215 57.5984 51.8956 60.9312 47.8615 60.9312H47.8383C43.7843 60.9018 40.5169 57.6023 40.5263 53.5484V48.0824C40.5296 47.4475 40.0276 46.925 39.3927 46.9028H12.2051L12.4968 7.05292C12.4968 4.41651 14.6754 2.26721 17.3539 2.26721H57.2663C55.9744 3.68421 55.1215 5.47705 55.1215 7.47802V53.5655ZM67.7328 7.4675V16.4372H57.3887V7.4758C57.3887 4.63847 59.7489 2.26721 62.5851 2.26721H62.6166C65.4601 2.29544 67.7461 4.61523 67.7328 7.4592V7.4675Z" fill="#0073AE"/>
<path d="M26.6182 27.9026L32.4628 31.8985C32.8442 32.1614 33.3484 32.1614 33.7298 31.8985L39.5567 27.9037C41.5809 26.5227 43.076 23.6356 43.076 21.1874V13.1027C43.0881 12.6754 42.8523 12.279 42.4715 12.0848L33.5726 7.70755C33.2604 7.55256 32.894 7.55256 32.5818 7.70755L23.6995 12.0726C23.3187 12.2669 23.0835 12.6632 23.0962 13.0905V21.1874C23.0962 23.6356 24.5946 26.5227 26.6182 27.9026ZM25.3634 13.7979L33.0861 9.98748L40.8087 13.8084V21.1874C40.8087 22.895 39.6895 25.067 38.2775 26.0295L33.0728 29.5892L27.8885 26.0301C26.4765 25.0664 25.3634 22.895 25.3634 21.1874V13.7979Z" fill="#0073AE"/>
<path d="M31.1698 22.899C31.3813 23.1149 31.6702 23.2372 31.9724 23.2389H31.9752C32.2763 23.2377 32.5647 23.1171 32.7767 22.9034L37.2862 18.3923C37.7296 17.9494 37.7296 17.231 37.2867 16.7882C36.8445 16.3448 36.126 16.3448 35.6832 16.7876L31.9791 20.4912L30.4984 18.9961C30.0573 18.5511 29.3393 18.5478 28.8943 18.9889C28.4493 19.4301 28.4465 20.148 28.8871 20.593L31.1698 22.899Z" fill="#0073AE"/>
<path d="M47.1858 35.1416H19.9793C19.3533 35.1416 18.8457 35.6492 18.8457 36.2752C18.8457 36.9012 19.3533 37.4088 19.9793 37.4088H47.1858C47.8118 37.4088 48.3194 36.9012 48.3194 36.2752C48.3194 35.6492 47.8118 35.1416 47.1858 35.1416Z" fill="#0073AE"/>
<path d="M47.1858 40.3845H19.9793C19.3533 40.3845 18.8457 40.8921 18.8457 41.5181C18.8457 42.1442 19.3533 42.6517 19.9793 42.6517H47.1858C47.8118 42.6517 48.3194 42.1442 48.3194 41.5181C48.3194 40.8921 47.8118 40.3845 47.1858 40.3845Z" fill="#0073AE"/>
</g>
<defs>
<clipPath id="clip0_1_2942">
<rect width="70" height="70" fill="white"/>
</clipPath>
</defs>
</svg>
