<svg width="70" height="70" viewBox="0 0 70 70" fill="none" xmlns="http://www.w3.org/2000/svg">
<g clip-path="url(#clip0_1_2934)">
<path d="M41.1168 38.6516C40.7232 38.7887 40.4325 39.1255 40.3545 39.535C40.2764 39.9445 40.4227 40.3645 40.7383 40.6369C41.0539 40.9093 41.4908 40.9926 41.8845 40.8554C51.5743 37.4972 57.4228 27.633 55.7201 17.52C54.0173 7.40711 45.2611 0.00195312 35.0058 0.00195312C24.7505 0.00195312 15.9943 7.40711 14.2916 17.52C12.5888 27.633 18.4373 37.4972 28.1272 40.8554C28.7361 41.0671 29.4012 40.7451 29.6129 40.1362C29.8246 39.5273 29.5026 38.8621 28.8937 38.6504C26.8766 37.9465 24.9957 36.9007 23.3333 35.5588V34.2883C23.3286 30.6489 25.5695 27.3838 28.9672 26.0796C32.5815 28.6402 37.4185 28.6402 41.0328 26.0796C44.4305 27.3838 46.6714 30.6489 46.6667 34.2883V35.5634C45.0072 36.903 43.13 37.9476 41.1168 38.6516ZM26.8333 17.4999C26.8333 12.9896 30.4897 9.33326 35 9.33326C39.5103 9.33326 43.1667 12.9896 43.1667 17.4999C43.1667 22.0103 39.5103 25.6666 35 25.6666C30.4918 25.6615 26.8385 22.0081 26.8333 17.4999ZM42.9333 24.3518C46.6014 20.1154 46.2963 13.7451 42.2402 9.87863C38.1841 6.01214 31.8066 6.01214 27.7505 9.87863C23.6944 13.7451 23.3893 20.1154 27.0573 24.3518C23.622 26.1082 21.3433 29.5205 21.0373 33.3666C14.3867 25.8712 14.8406 14.4618 22.0657 7.51843C29.2908 0.575041 40.7092 0.575041 47.9343 7.51843C55.1594 14.4618 55.6133 25.8712 48.9627 33.3666C48.6557 29.5182 46.3729 26.1051 42.9333 24.3518Z" fill="#0073AE"/>
<path d="M24.9663 69.5461C25.6796 70.0725 26.631 70.1454 27.4163 69.7339L35.0078 65.7894L42.5981 69.7351C43.3853 70.1443 44.3364 70.0717 45.0523 69.5478C45.7683 69.0239 46.1252 68.1393 45.9733 67.2653L44.5313 58.9446L50.6329 53.0634C51.2739 52.4455 51.5074 51.5165 51.2347 50.669C50.962 49.8214 50.2307 49.2028 49.3496 49.0746L40.8796 47.8578L37.0996 40.2593C36.7071 39.4636 35.895 38.9617 35.0078 38.9666C34.1232 38.9634 33.3137 39.4633 32.9206 40.2558L29.1196 47.8578L20.6683 49.0734C19.7867 49.2013 19.0548 49.8201 18.7821 50.6681C18.5093 51.5162 18.7432 52.4455 19.3849 53.0634L25.4889 58.9446L24.0458 67.2653C23.8916 68.139 24.2488 69.0241 24.9663 69.5461ZM20.9996 51.3834L30.0553 50.0803C30.4336 50.0259 30.7614 49.7897 30.9326 49.4479L35.0066 41.2999L39.0631 49.4456C39.2339 49.7886 39.5623 50.0258 39.9416 50.0803L49.0159 51.3834L42.4663 57.6939C42.1877 57.9626 42.0605 58.3521 42.1268 58.7334L43.6749 67.6666L35.5468 63.4421C35.2096 63.2669 34.8083 63.2669 34.4711 63.4421L26.3418 67.6666L27.8899 58.7358C27.9562 58.3544 27.829 57.965 27.5504 57.6963L20.9996 51.3834Z" fill="#0073AE"/>
<path d="M5.48353 51.5922L4.3437 58.1827C4.23368 58.7972 4.40115 59.4288 4.80114 59.908C5.20113 60.3872 5.79265 60.6649 6.41686 60.6666C6.75768 60.666 7.09337 60.5836 7.3957 60.4262L13.4169 57.2926L19.4345 60.4332C19.8042 60.6258 20.2486 60.6065 20.6002 60.3826C20.9518 60.1587 21.1573 59.7642 21.1392 59.3478C21.1211 58.9313 20.8822 58.5561 20.5125 58.3636L13.9559 54.9452C13.6181 54.7693 13.2157 54.7693 12.8779 54.9452L6.72136 58.1524L7.88803 51.3857C7.95432 51.0044 7.82714 50.6149 7.54853 50.3462L2.5937 45.5629L9.4502 44.5782C9.82881 44.5237 10.1566 44.2869 10.3275 43.9447L13.4169 37.7684L16.4945 43.9436C16.6656 44.2868 16.9945 44.5241 17.3742 44.5782L24.6997 45.6282C25.3376 45.7194 25.9286 45.2762 26.0198 44.6383C26.111 44.0004 25.6678 43.4094 25.0299 43.3182L18.3099 42.3557L15.3034 36.3217C14.9472 35.6038 14.2136 35.1513 13.4122 35.1551H13.4052C12.6126 35.1535 11.8883 35.6034 11.5385 36.3147L8.51686 42.3557L1.8167 43.3171C1.01457 43.424 0.345257 43.9823 0.0961685 44.7522C-0.15292 45.5222 0.0625421 46.3667 0.650031 46.9232L5.48353 51.5922Z" fill="#0073AE"/>
<path d="M69.8951 44.7485C69.6516 43.9826 68.9883 43.4256 68.1918 43.3182L61.4834 42.3557L58.4688 36.3159C58.1202 35.6026 57.396 35.15 56.6021 35.1492H56.5951C55.7933 35.145 55.0591 35.5976 54.7028 36.3159L51.6974 42.3487L44.9763 43.3112C44.5636 43.3702 44.2138 43.6448 44.0586 44.0317C43.9033 44.4185 43.9662 44.8588 44.2236 45.1867C44.481 45.5145 44.8938 45.6802 45.3064 45.6212L52.6331 44.5712C53.0128 44.5171 53.3417 44.2798 53.5128 43.9365L56.5834 37.7684L59.6669 43.9447C59.8378 44.2869 60.1657 44.5236 60.5443 44.5782L67.3973 45.5617L62.4424 50.345C62.1638 50.6138 62.0367 51.0032 62.1029 51.3845L63.2754 58.1512L57.1189 54.9405C56.7812 54.7646 56.3787 54.7646 56.0409 54.9405L49.4843 58.3589C49.1146 58.5514 48.8757 58.9266 48.8576 59.3431C48.8395 59.7595 49.045 60.154 49.3966 60.3779C49.7482 60.6018 50.1926 60.6211 50.5623 60.4285L56.5834 57.2925L62.6034 60.4332C63.316 60.8034 64.1769 60.737 64.8242 60.2618C65.4715 59.7866 65.7928 58.9851 65.6531 58.1944L64.5168 51.5922L69.3538 46.9255C69.9392 46.3651 70.1498 45.5179 69.8951 44.7485Z" fill="#0073AE"/>
<path d="M28.5831 54.9955C28.6393 54.9952 28.6954 54.9909 28.7511 54.9826L33.1389 54.3515C33.5173 54.2971 33.845 54.0609 34.0162 53.7191L36.0462 49.6603C36.3362 49.0836 36.1037 48.3811 35.5271 48.0911C34.9504 47.8012 34.2478 48.0336 33.9579 48.6103L32.2079 52.1231L28.4221 52.668C27.8156 52.7544 27.3793 53.295 27.4229 53.906C27.4665 54.517 27.9752 54.9902 28.5877 54.9896L28.5831 54.9955Z" fill="#0073AE"/>
</g>
<defs>
<clipPath id="clip0_1_2934">
<rect width="70" height="70" fill="white"/>
</clipPath>
</defs>
</svg>
